<svg xmlns="http://www.w3.org/2000/svg" xmlns:xlink="http://www.w3.org/1999/xlink" viewBox="0 0 1200 800"><defs><style>.cls-1{fill:none;}.cls-2{fill:url(#linear-gradient);}.cls-3{clip-path:url(#clip-path);}.cls-4{fill:url(#linear-gradient-2);}.cls-5{fill:url(#linear-gradient-3);}.cls-6{fill:url(#linear-gradient-4);}.cls-7{fill:url(#linear-gradient-5);}.cls-8{fill:url(#linear-gradient-6);}.cls-9{fill:url(#linear-gradient-7);}.cls-10{fill:url(#linear-gradient-8);}.cls-11{fill:url(#linear-gradient-9);}.cls-12{fill:url(#linear-gradient-10);}.cls-13{fill:url(#linear-gradient-11);}.cls-14{fill:url(#linear-gradient-12);}.cls-15{fill:url(#Degradado_sin_nombre_3);}</style><linearGradient id="linear-gradient" x1="100" y1="900" x2="1100" y2="-100" gradientUnits="userSpaceOnUse"><stop offset="0" stop-color="#e9e9e9"/><stop offset="1" stop-color="#dfdfdf"/></linearGradient><clipPath id="clip-path"><rect class="cls-1" width="1200" height="800"/></clipPath><linearGradient id="linear-gradient-2" x1="839.61" y1="-36.58" x2="1502.97" y2="-36.58" gradientUnits="userSpaceOnUse"><stop offset="0" stop-color="#d2d2d2"/><stop offset="1" stop-color="#e0e0e0"/></linearGradient><linearGradient id="linear-gradient-3" x1="781.09" y1="-109.06" x2="1370.31" y2="-109.06" gradientTransform="translate(-0.83 0.99) rotate(-0.09)" gradientUnits="userSpaceOnUse"><stop offset="0" stop-color="#b8b8b8"/><stop offset="1" stop-color="#e0e0e0"/></linearGradient><linearGradient id="linear-gradient-4" x1="1126.51" y1="233.08" x2="1177.75" y2="233.08" gradientTransform="translate(63.78 -212.93) rotate(10.82)" gradientUnits="userSpaceOnUse"><stop offset="0" stop-color="#b0b0b0"/><stop offset="1" stop-color="#e0e0e0"/></linearGradient><linearGradient id="linear-gradient-5" x1="788.89" y1="102.49" x2="840.13" y2="102.49" gradientTransform="matrix(0.36, 0.93, -0.93, 0.36, 616.45, -694.59)" xlink:href="#linear-gradient-3"/><linearGradient id="linear-gradient-6" x1="-436.67" y1="501.75" x2="152.27" y2="501.75" gradientUnits="userSpaceOnUse"><stop offset="0" stop-color="#a8a8a8"/><stop offset="1" stop-color="#d2d2d2"/></linearGradient><linearGradient id="linear-gradient-7" x1="180.71" y1="982.68" x2="700.91" y2="982.68" gradientTransform="translate(-0.83 0.99) rotate(-0.09)" gradientUnits="userSpaceOnUse"><stop offset="0" stop-color="#e0e0e0"/><stop offset="1" stop-color="#b0b0b0"/></linearGradient><linearGradient id="linear-gradient-8" x1="-52.26" y1="911.56" x2="476.55" y2="911.56" xlink:href="#linear-gradient-7"/><linearGradient id="linear-gradient-9" x1="-402.18" y1="840.61" x2="256.83" y2="840.61" gradientTransform="translate(-0.83 0.99) rotate(-0.09)" gradientUnits="userSpaceOnUse"><stop offset="0" stop-color="#e0e0e0"/><stop offset="1" stop-color="#b8b8b8"/></linearGradient><linearGradient id="linear-gradient-10" x1="129.46" y1="609.48" x2="180.7" y2="609.48" gradientTransform="translate(475.66 69.13) rotate(44.91)" xlink:href="#linear-gradient-4"/><linearGradient id="linear-gradient-11" x1="30.93" y1="300.84" x2="82.17" y2="300.84" gradientTransform="matrix(0.99, 0.12, -0.12, 0.99, 35.7, -3.68)" xlink:href="#linear-gradient-3"/><linearGradient id="linear-gradient-12" x1="610.18" y1="918.87" x2="1274.04" y2="918.87" gradientTransform="matrix(0, 1, 1, 0, -5.67, 5.86)" xlink:href="#linear-gradient-3"/><linearGradient id="Degradado_sin_nombre_3" x1="969.9" y1="714.79" x2="1021.14" y2="714.79" gradientTransform="translate(143.77 -166.41) rotate(10.29)" xlink:href="#linear-gradient-4"/></defs><title>dashboard-bg-01</title><g id="Background"><rect class="cls-2" width="1200" height="800"/></g><g id="Graphic_Elements" data-name="Graphic Elements"><g class="cls-3"><path class="cls-4" d="M1495.53-138.77l-.44-.43a25.31,25.31,0,0,0-35.8.06l-4.24,4.25a25.33,25.33,0,0,1-35.81.06l-.43-.43a25.32,25.32,0,0,0-35.8,0l-38.27,38.39a25.63,25.63,0,0,1-36.24,0h0a25.62,25.62,0,0,1,0-36.23L1365-189.73a25.32,25.32,0,0,0-.06-35.8l-.43-.44a25.32,25.32,0,0,0-35.8.06L1204.24-101.06A25.62,25.62,0,0,1,1168-101h0a25.63,25.63,0,0,1-.06-36.24l124.48-124.85a25.32,25.32,0,0,0-.06-35.8l-.43-.44a25.32,25.32,0,0,0-35.8.06L971.23-12.49a25.62,25.62,0,0,0,0,36.23h0A25.62,25.62,0,0,1,971.34,60L847.08,184.61a25.62,25.62,0,0,0,.06,36.23h0a25.61,25.61,0,0,0,36.23-.05L1007.63,96.15a25.62,25.62,0,0,1,36.23-.05h0a25.61,25.61,0,0,1,.06,36.23l-56.34,56.52a25.62,25.62,0,0,0,0,36.23h0a25.63,25.63,0,0,0,36.24-.05l38.05-38.17a25.63,25.63,0,0,1,36.24-.06h0a25.62,25.62,0,0,0,36.23-.05l3.82-3.83a25.62,25.62,0,0,1,36.23,0h0a25.62,25.62,0,0,0,36.23-.06L1495.58-103A25.32,25.32,0,0,0,1495.53-138.77Z"/><path class="cls-5" d="M1074.83-26.28h0a25.05,25.05,0,0,1,.06,35.43L1000.32,84a25.05,25.05,0,0,0,0,35.43h0a25.05,25.05,0,0,1,.06,35.43L984.78,170.5a25.05,25.05,0,0,0,.06,35.43h0a25.05,25.05,0,0,0,35.43-.05L1271.73-46.35a25.05,25.05,0,0,0-.06-35.43h0a25.05,25.05,0,0,1-.05-35.43l15.64-15.69a25.05,25.05,0,0,0,0-35.43h0a25.05,25.05,0,0,1-.06-35.43l74.57-74.8a25.05,25.05,0,0,0,0-35.43h0a25.05,25.05,0,0,0-35.43.05l-41.85,42a25.06,25.06,0,0,1-35.43,0h0a25.05,25.05,0,0,0-35.43.05L1159-217.13a25.05,25.05,0,0,1-35.43,0h0a25.06,25.06,0,0,1-.06-35.43l21.84-21.9a25.06,25.06,0,0,0,0-35.43h0a25.05,25.05,0,0,1-.06-35.43l44.5-44.64a25.05,25.05,0,0,0,0-35.43h0a25.07,25.07,0,0,0-35.44,0l-44.49,44.64a25.06,25.06,0,0,1-35.44,0h0a25.05,25.05,0,0,0-35.43.06L787.41-128.32a25.05,25.05,0,0,0,.05,35.43h0a25.05,25.05,0,0,0,35.43,0l44.5-44.64a25.06,25.06,0,0,1,35.43,0h0a25.06,25.06,0,0,1,.06,35.43l-44.5,44.64a25.05,25.05,0,0,0,0,35.43h0a25.05,25.05,0,0,1,.05,35.43L836.65,35.2a25.05,25.05,0,0,0,.05,35.43h0a25.06,25.06,0,0,0,35.44,0l54.55-54.73a25.06,25.06,0,0,1,35.44,0h0a25.06,25.06,0,0,0,35.43-.05l41.84-42A25.05,25.05,0,0,1,1074.83-26.28Z"/><circle class="cls-6" cx="1151.65" cy="232.34" r="25.62" transform="matrix(0.98, -0.19, 0.19, 0.98, -23.16, 222.14)"/><circle class="cls-7" cx="813.83" cy="102.26" r="25.62" transform="translate(426.73 825.4) rotate(-69)"/><path class="cls-8" d="M-141.93,585.17h0a25.05,25.05,0,0,1,.05,35.43l-74.57,74.8a25.05,25.05,0,0,0,.06,35.43h0a25.06,25.06,0,0,1,0,35.43L-232,782a25.05,25.05,0,0,0,0,35.43h0a25.05,25.05,0,0,0,35.43,0L55,565.1a25.05,25.05,0,0,0-.06-35.43h0a25.06,25.06,0,0,1,0-35.43l15.64-15.69a25.05,25.05,0,0,0,0-35.43h0a25.05,25.05,0,0,1,0-35.43L145,332.89a25.06,25.06,0,0,0-.06-35.43h0a25.05,25.05,0,0,0-35.43.05l-41.85,42a25.05,25.05,0,0,1-35.43.06h0a25.05,25.05,0,0,0-35.43,0L-57.8,394.32a25.05,25.05,0,0,1-35.43.05h0a25.05,25.05,0,0,1,0-35.43L-71.45,337a25.05,25.05,0,0,0,0-35.43h0a25.05,25.05,0,0,1-.06-35.43l44.5-44.64a25.05,25.05,0,0,0-.05-35.43h0a25.05,25.05,0,0,0-35.43,0L-107,230.8a25.05,25.05,0,0,1-35.43,0h0a25.05,25.05,0,0,0-35.43.06L-429.36,483.13a25.05,25.05,0,0,0,.05,35.43h0a25.05,25.05,0,0,0,35.43,0l44.5-44.64a25.05,25.05,0,0,1,35.43-.05h0a25.05,25.05,0,0,1,.06,35.43l-44.5,44.64a25.05,25.05,0,0,0,.05,35.43h0a25.05,25.05,0,0,1,.06,35.43l-21.84,21.9a25.05,25.05,0,0,0,.06,35.43h0a25.05,25.05,0,0,0,35.43-.05l54.56-54.73a25.05,25.05,0,0,1,35.43,0h0a25.05,25.05,0,0,0,35.43-.06l41.85-42A25.05,25.05,0,0,1-141.93,585.17Z"/><path class="cls-9" d="M207.21,1047.16,189,1065.45a25.62,25.62,0,0,0,.06,36.23h0a25.62,25.62,0,0,0,36.23,0l69.84-70.06a25.62,25.62,0,0,1,36.24,0h0a25.62,25.62,0,0,1,0,36.23l-69.84,70.06a25.62,25.62,0,0,0,.06,36.23h0a25.61,25.61,0,0,0,36.23-.06l38.84-39a25.63,25.63,0,0,1,36.24-.06h0a25.63,25.63,0,0,1,.05,36.24l-69.35,69.56a25.63,25.63,0,0,0,.05,36.24h0a25.63,25.63,0,0,0,36.24-.06L624.61,991.39a25.62,25.62,0,0,0-.06-36.23h0a25.63,25.63,0,0,1,0-36.24l69.35-69.56a25.63,25.63,0,0,0-.05-36.24h0a25.63,25.63,0,0,0-36.24.06l-38.84,39a25.62,25.62,0,0,1-36.23.05h0a25.62,25.62,0,0,1-.06-36.23l69.84-70.06a25.62,25.62,0,0,0,0-36.23h0a25.63,25.63,0,0,0-36.24.05l-69.84,70.06a25.62,25.62,0,0,1-36.23.05h0a25.62,25.62,0,0,1-.06-36.23l18.23-18.29a25.61,25.61,0,0,0-.06-36.23h0a25.61,25.61,0,0,0-36.23.06L207.1,974.69a25.63,25.63,0,0,0,.05,36.24h0A25.61,25.61,0,0,1,207.21,1047.16Z"/><path class="cls-10" d="M86.08,1149.11l26.11-26.19a25.62,25.62,0,0,1,36.23-.06h0a25.63,25.63,0,0,0,36.24,0L469.56,837a25.31,25.31,0,0,0-.05-35.8l-.43-.43a25.33,25.33,0,0,0-35.81.05L407,827.26a25.62,25.62,0,0,1-36.23,0h0a25.61,25.61,0,0,1-.06-36.23l7.57-7.59a25.32,25.32,0,0,0-.06-35.8l-.43-.44a25.32,25.32,0,0,1-.06-35.8h0a25.32,25.32,0,0,0-.05-35.8l-.44-.43a25.32,25.32,0,0,0-35.8,0l-28.55,28.64A25.32,25.32,0,0,1,277,704l-.43-.43a25.31,25.31,0,0,0-35.8.06L-44.1,989.36A25.62,25.62,0,0,0-44,1025.6h0a25.62,25.62,0,0,0,36.23-.06l28.55-28.63a25,25,0,0,1,35.37-.06l.86.87a25,25,0,0,1,.06,35.37h0a25.62,25.62,0,0,0,0,36.23h0a25.63,25.63,0,0,1,.06,36.24l-7.35,7.37a25.61,25.61,0,0,0,.06,36.23h0A25.62,25.62,0,0,0,86.08,1149.11Z"/><path class="cls-11" d="M-254.32,912.91l-139.6,140a25.62,25.62,0,0,0,.05,36.24h0a25.63,25.63,0,0,0,36.24-.06l55.62-55.79a25.62,25.62,0,0,1,36.23-.06h0a25.63,25.63,0,0,1,.06,36.24L-344,1148a25.62,25.62,0,0,0,.06,36.24h0a25.61,25.61,0,0,0,36.23-.06l16.2-16.24a25.62,25.62,0,0,1,36.23-.06h0a25.63,25.63,0,0,0,36.24,0l34.42-34.54a25.63,25.63,0,0,1,36.24,0l.88.87a24.4,24.4,0,0,1,.05,34.49h0a25.62,25.62,0,0,0,0,36.23h0a25.63,25.63,0,0,0,36.24,0L249.94,842.59a25,25,0,0,0-.05-35.36l-.88-.88A25,25,0,0,1,249,771h0a25,25,0,0,0-.06-35.36l-.87-.88a25,25,0,0,0-35.36.06l-35.31,35.41a25,25,0,0,1-35.35,0l-.88-.87a25,25,0,0,0-35.36.05L89.14,786.15a25.63,25.63,0,0,1-36.24.05h0a25.62,25.62,0,0,1,0-36.23l78.67-78.92a25,25,0,0,0-.05-35.36l-.88-.87a25,25,0,0,0-35.36,0L39.17,691.1a25.62,25.62,0,0,1-36.23.06h0a25.63,25.63,0,0,1-.06-36.24L142.93,514.45a25,25,0,0,0-.05-35.36l-.88-.87a25,25,0,0,0-35.36,0L-254.43,840.44a25.62,25.62,0,0,0,.06,36.23h0A25.62,25.62,0,0,1-254.32,912.91Z"/><circle class="cls-12" cx="155.16" cy="610.24" r="25.62" transform="translate(-386.06 288.45) rotate(-45)"/><circle class="cls-13" cx="56.17" cy="301.75" r="25.62" transform="translate(-35.83 8.93) rotate(-6.9)"/><path class="cls-14" d="M813.46,1271.26l-.44-.43a25.32,25.32,0,0,1,0-35.8l4.25-4.26a25.32,25.32,0,0,0-.06-35.8l-.43-.44a25.31,25.31,0,0,1-.05-35.8L855,1120.34a25.62,25.62,0,0,0-.06-36.23h0a25.62,25.62,0,0,0-36.23.05L762.1,1140.9a25.32,25.32,0,0,1-35.8,0l-.44-.43a25.32,25.32,0,0,1-.05-35.8L850.28,979.87a25.63,25.63,0,0,0-.06-36.24h0a25.61,25.61,0,0,0-36.23.06L689.52,1068.54a25.32,25.32,0,0,1-35.8,0l-.44-.43a25.32,25.32,0,0,1,0-35.8l284.9-285.78a25.63,25.63,0,0,1,36.24-.05h0a25.62,25.62,0,0,0,36.23-.06l124.26-124.63a25.62,25.62,0,0,1,36.23-.06h0a25.62,25.62,0,0,1,.06,36.24L1046.89,782.65a25.63,25.63,0,0,0,.06,36.24h0a25.62,25.62,0,0,0,36.23-.06l56.35-56.51a25.61,25.61,0,0,1,36.23-.06h0a25.62,25.62,0,0,1,.06,36.23l-38.06,38.18a25.61,25.61,0,0,0,.06,36.23h0a25.63,25.63,0,0,1,0,36.24l-3.81,3.82a25.63,25.63,0,0,0,0,36.24h0a25.62,25.62,0,0,1,.06,36.23L849.26,1271.21A25.32,25.32,0,0,1,813.46,1271.26Z"/><circle class="cls-15" cx="995.52" cy="714.79" r="25.62" transform="translate(-111.72 189.42) rotate(-10.29)"/></g></g></svg>