<svg id="Capa_1" data-name="Capa 1" xmlns="http://www.w3.org/2000/svg" viewBox="0 0 500 500"><defs><style>.cls-1{fill:#999;}.cls-2{fill:#fff;}</style></defs><title>default-user</title><path class="cls-1" d="M152.72,190.84c.34,2.26.69,4.52,1,6.78q.3-2.73.69-5.43A14.71,14.71,0,0,0,152.72,190.84ZM249.9,0C111.83,0-.1,111.93-.1,250A248.77,248.77,0,0,0,40.16,386.1c41-23.35,95.93-39.79,157.77-45.63v-8.56c-17.43-15.3-31.11-38.06-38.69-65a7.17,7.17,0,0,1-2,.63C148.47,269,139,252.72,136,231.12s1.88-40.32,10.71-41.82a8.15,8.15,0,0,1,6,1.54q-3.24-21.39-6.49-42.8c-1.19-7.83-2.33-16.08.53-23.46s11.24-13.26,18.65-10.49C162.44,99.09,179,88,193.5,83c24.23-8.34,50.21-12.59,75.62-9.3s50.23,14.52,67.37,33.58c5.42,6,10.09,12.88,12.67,20.57,5,14.8,1.81,30.94-1.39,46.22q-1.5,7.13-3,14.26c-.4,1.88-.79,3.76-1.19,5.64a21.73,21.73,0,0,1,1.76-1.81c2.5-2.26,5.13-3.33,7.69-2.89,8.83,1.5,13.63,20.23,10.71,41.82S351.33,269,342.5,267.5a7.17,7.17,0,0,1-1.95-.63c-7.57,27-21.26,49.75-38.69,65v8.87c61.71,6.23,116.33,23,156.9,46.67A248.82,248.82,0,0,0,499.9,250C499.9,111.93,388,0,249.9,0Z"/><path class="cls-2" d="M345.35,192.19a21.73,21.73,0,0,0-1.76,1.81c.4-1.88.79-3.76,1.19-5.64C345,189.63,345.18,190.91,345.35,192.19Z"/><path class="cls-2" d="M154.44,192.19q-.39,2.7-.69,5.43c-.34-2.26-.69-4.52-1-6.78A14.71,14.71,0,0,1,154.44,192.19Z"/><path class="cls-2" d="M154.44,192.19q-.39,2.7-.69,5.43c-.34-2.26-.69-4.52-1-6.78A14.71,14.71,0,0,1,154.44,192.19Z"/></svg>