<?xml version="1.0" encoding="utf-8"?>
<!-- Generator: Adobe Illustrator 23.1.0, SVG Export Plug-In . SVG Version: 6.00 Build 0)  -->
<svg version="1.1" id="Capa_1" xmlns="http://www.w3.org/2000/svg" xmlns:xlink="http://www.w3.org/1999/xlink" x="0px" y="0px"
	 viewBox="0 0 1173 1156.1" style="enable-background:new 0 0 1173 1156.1;" xml:space="preserve">
<style type="text/css">
	.st0{fill:#D3183C;}
	.st1{fill:#FFFFFF;}
	.st2{fill:#FFFFFF;stroke:#FFFFFF;stroke-width:14;stroke-miterlimit:10;}
</style>
<title>Icono</title>
<g>
	<path class="st0" d="M578,0H595c319.2,0,578,258.8,578,578l0,0c0,319.2-258.8,578-578,578H578c-319.2,0-578-258.8-578-578l0,0
		C0,258.8,258.8,0,578,0z"/>
</g>
<g id="Capa_3">
	<path class="st1" d="M985.7,519.3c-1.3-7.6-7-13.6-14.6-15.3L802,465.3l51-165.8c3.1-10.1-2.5-20.8-12.5-23.9
		c-4.8-1.5-10-1-14.5,1.3l-154.4,79.1L604.1,196c-4.1-9.7-15.3-14.3-25-10.2c-4.6,1.9-8.2,5.6-10.2,10.2l-67.5,159.9L347,276.8
		c-9.4-4.8-20.9-1.1-25.7,8.3c-2.3,4.4-2.7,9.6-1.3,14.4l51.1,165.8L201.9,504c-10.3,2.3-16.7,12.6-14.4,22.9
		c1.1,4.9,4.1,9.1,8.2,11.8l145.7,94.2L236.8,771.2c-6.4,8.4-4.7,20.4,3.7,26.8c4,3,9,4.3,13.9,3.7l172.2-21.5l8.7,173.3
		c0.3,7.7,5.3,14.4,12.5,17c2.1,0.8,4.4,1.2,6.7,1.2c5.3,0,10.3-2.2,13.9-6.1l118.1-127.2l118.1,127.2c7.2,7.8,19.2,8.2,27,1.1
		c3.7-3.4,5.9-8.1,6.1-13.1l8.7-173.3l172.2,21.5c10.4,1.4,20-6,21.4-16.5c0.6-5-0.7-10-3.8-14L831.5,632.9l145.8-94.2
		C983.7,534.5,987.1,526.8,985.7,519.3z M327.1,725.1L407,619.5c0.5-0.7,0.4-1.6-0.3-2.1l-0.1-0.1l-111.2-71.9
		c-5-3.2-6.4-9.9-3.2-14.9c1.5-2.3,3.9-4,6.6-4.6l129.1-29.5c0.8-0.2,1.3-1,1.1-1.8v-0.1L390,368c-1.7-5.7,1.5-11.7,7.2-13.4
		c2.7-0.8,5.5-0.6,8,0.7l117.8,60.3c0.7,0.4,1.6,0.1,2-0.7c0,0,0-0.1,0-0.1l51.5-122c2.3-5.5,8.6-8,14.1-5.7
		c2.6,1.1,4.6,3.1,5.7,5.7l51.5,122c0.3,0.8,1.2,1.1,2,0.8c0,0,0,0,0,0h0.1l117.8-60.3c5.3-2.7,11.8-0.6,14.5,4.7
		c1.3,2.5,1.5,5.4,0.7,8.1L744,494.6c-0.2,0.8,0.2,1.6,1,1.9c0,0,0,0,0,0h0.1l129,29.6c5.8,1.3,9.4,7.1,8.1,12.9
		c-0.6,2.7-2.3,5.1-4.6,6.6l-111.2,71.9c-0.7,0.4-0.9,1.3-0.4,2l0.1,0.1L845.9,725c3.6,4.7,2.7,11.5-2,15.1c-2.3,1.7-5.1,2.5-8,2.1
		l-131.3-16.4c-0.8-0.1-1.6,0.5-1.7,1.3c0,0,0,0,0,0c0,0,0,0.1,0,0.1l-6.7,132.2c-0.3,5.9-5.3,10.5-11.3,10.2
		c-2.8-0.1-5.4-1.4-7.3-3.4l-90.1-97c-0.6-0.6-1.5-0.6-2.1-0.1c0,0,0,0.1-0.1,0.1l-90.1,97c-4,4.4-10.8,4.6-15.2,0.6
		c-2.1-1.9-3.3-4.6-3.4-7.4l-6.7-132.2c0-0.8-0.7-1.4-1.5-1.4c0,0,0,0,0,0h-0.1L337,742.3c-5.9,0.7-11.3-3.5-12-9.3
		C324.6,730.1,325.4,727.3,327.1,725.1L327.1,725.1z"/>
	<path class="st2" d="M686.6,473v157.4c0,18-4,33.8-12.1,47.3c-8,13.5-19.7,23.9-34.8,31.1c-15.2,7.2-33.2,10.8-53.9,10.8
		c-31.3,0-55.6-8-72.9-24c-17.3-16-26-37.9-26-65.8V473h51.4v149c0,18.8,3.8,32.5,11.3,41.3c7.5,8.8,20,13.1,37.5,13.2
		c16.9,0,29.1-4.4,36.7-13.2s11.4-22.7,11.4-41.5V473H686.6z"/>
</g>
</svg>
