<svg xmlns="http://www.w3.org/2000/svg" xmlns:xlink="http://www.w3.org/1999/xlink" viewBox="0 0 1173.01 1156.06"><defs><style>.cls-1{fill:url(#Degradado_sin_nombre_17);}.cls-2,.cls-3{fill:#fff;}.cls-3{stroke:#fff;stroke-miterlimit:10;stroke-width:14px;}</style><radialGradient id="Degradado_sin_nombre_17" cx="162.1" cy="1223.89" r="930.27" gradientTransform="matrix(1.56, 0, 0, -2.31, 0, 2672.81)" gradientUnits="userSpaceOnUse"><stop offset="0" stop-color="#eb002e"/><stop offset="1" stop-color="#eb002e"/></radialGradient></defs><title>Icono</title><g id="Capa_2" data-name="Capa 2"><rect class="cls-1" width="1173.01" height="1156.06" rx="578.03"/></g><g id="Capa_3" data-name="Capa 3"><path class="cls-2" d="M985.66,519.28A18.81,18.81,0,0,0,971.1,504L802,465.28,853,299.44a19.08,19.08,0,0,0-27-22.63L671.59,355.9,604.12,196a19.11,19.11,0,0,0-35.21,0L501.43,355.9,347,276.81a19.11,19.11,0,0,0-27,22.63l51.08,165.84L201.92,504a19.1,19.1,0,0,0-6.13,34.66l145.75,94.21L236.82,771.23a19.11,19.11,0,0,0,17.61,30.49l172.18-21.5,8.71,173.31a18.8,18.8,0,0,0,12.54,17,19.51,19.51,0,0,0,6.67,1.2,18.86,18.86,0,0,0,13.87-6.13l118.11-127.2L704.6,965.56a19.1,19.1,0,0,0,33.11-12l8.73-173.31,172.19,21.5a19.07,19.07,0,0,0,17.6-30.49L831.49,632.86l145.75-94.22A18.83,18.83,0,0,0,985.66,519.28ZM327.07,725.08,407,619.52a1.49,1.49,0,0,0-.29-2.08l-.09-.07L295.43,545.49A10.75,10.75,0,0,1,298.87,526l129.06-29.53a1.49,1.49,0,0,0,1.12-1.78l0-.11L390.05,368a10.76,10.76,0,0,1,15.18-12.71l117.83,60.34a1.49,1.49,0,0,0,2-.66.36.36,0,0,0,0-.09l51.48-122a10.76,10.76,0,0,1,19.82,0l51.48,122a1.5,1.5,0,0,0,2,.79l.09,0,117.82-60.34a10.75,10.75,0,0,1,15.18,12.73L744,494.56a1.49,1.49,0,0,0,1,1.86l.11,0L874.16,526a10.75,10.75,0,0,1,3.44,19.51L766.42,617.37a1.47,1.47,0,0,0-.44,2l.06.09,79.89,105.57A10.75,10.75,0,0,1,836,742.24L704.65,725.83a1.48,1.48,0,0,0-1.66,1.28s0,.08,0,.12l-6.66,132.22a10.76,10.76,0,0,1-18.62,6.81l-90.1-97a1.49,1.49,0,0,0-2.1-.08.3.3,0,0,1-.08.08l-90.09,97a10.75,10.75,0,0,1-18.62-6.81l-6.66-132.19a1.48,1.48,0,0,0-1.55-1.41h-.12L337,742.25a10.76,10.76,0,0,1-9.91-17.17Z"/><path class="cls-3" d="M686.63,473V630.42q0,27-12.07,47.27T639.72,708.8q-22.82,10.82-53.94,10.82-46.93,0-72.87-24t-26-65.84V473h51.44v149q0,28.14,11.32,41.28t37.45,13.15q25.3,0,36.71-13.23t11.4-41.55V473Z"/></g></svg>