<svg id="Capa_1" data-name="Capa 1" xmlns="http://www.w3.org/2000/svg" viewBox="0 0 1500 600"><defs><style>.cls-1,.cls-6{fill:#8b8d8e;}.cls-2{fill:#545658;}.cls-3{fill:#cf112d;}.cls-4{fill:#f6f6f6;}.cls-5{fill:#fff;}.cls-6{font-size:243.03px;font-family:NotoSans-Bold, Noto Sans;font-weight:700;}.cls-7{font-size:34.9px;fill:#606060;font-family:NotoSans, Noto Sans;}.cls-8{letter-spacing:-0.01em;}.cls-9{letter-spacing:0em;}.cls-10{letter-spacing:-0.01em;}.cls-11{letter-spacing:-0.02em;}.cls-12{letter-spacing:-0.03em;}</style></defs><title>Logotipo</title><path class="cls-1" d="M281.88,473.65l-81.76,88a9.76,9.76,0,0,1-16.9-6.15l-6-120a1.35,1.35,0,0,0-1.52-1.27L56.44,449.15a9.76,9.76,0,0,1-9-15.57l72.5-95.8a1.34,1.34,0,0,0-.34-1.95L18.72,270.6a9.76,9.76,0,0,1,3.12-17.71L139,226.1a1.36,1.36,0,0,0,1-1.72L104.59,109.56A9.76,9.76,0,0,1,118.36,98L225.3,152.76a1.35,1.35,0,0,0,1.86-.67L273.88,41.4a9.76,9.76,0,0,1,18,0l46.72,110.69a1.35,1.35,0,0,0,1.86.67L447.38,98a9.76,9.76,0,0,1,13.77,11.56L425.79,224.38a1.36,1.36,0,0,0,1,1.72L543.9,252.89A9.76,9.76,0,0,1,547,270.6L446.13,335.83a1.34,1.34,0,0,0-.34,1.95l72.5,95.8a9.76,9.76,0,0,1-9,15.57L390.08,434.27a1.35,1.35,0,0,0-1.52,1.27l-6,120a9.76,9.76,0,0,1-16.9,6.15l-81.76-88A1.34,1.34,0,0,0,281.88,473.65Z"/><path class="cls-2" d="M193.06,568.07a13.15,13.15,0,0,1-4.54-.81A12.82,12.82,0,0,1,180,555.7l-5.94-118L56.85,452.37a13,13,0,0,1-12-20.75l71.26-94.18L17,273.32a13,13,0,0,1,4.16-23.6l115.13-26.33L101.49,110.52a13,13,0,0,1,18.35-15.4L225,149,270.89,40.14a13,13,0,0,1,24,0L340.78,149,445.9,95.12a13,13,0,0,1,18.35,15.4L429.5,223.39l115.12,26.33a13,13,0,0,1,4.17,23.6l-99.18,64.12,71.26,94.18a13,13,0,0,1-12,20.75L391.7,437.74l-5.94,118a13,13,0,0,1-22.52,8.19l-80.37-86.54L202.5,563.89A12.82,12.82,0,0,1,193.06,568.07ZM282.87,470h0a4.64,4.64,0,0,1,3.37,1.47l81.76,88a6.51,6.51,0,0,0,11.28-4.1l6-120a4.6,4.6,0,0,1,5.16-4.33L509.7,445.93a6.51,6.51,0,0,0,6-10.39l-72.5-95.81a4.59,4.59,0,0,1,1.17-6.63l100.89-65.23a6.51,6.51,0,0,0-2.08-11.82L426.06,229.26a4.59,4.59,0,0,1-3.37-5.83l35.36-114.82a6.52,6.52,0,0,0-9.19-7.72L341.92,155.65a4.59,4.59,0,0,1-6.33-2.3L288.87,42.66a6.51,6.51,0,0,0-12,0L230.15,153.35a4.66,4.66,0,0,1-2.66,2.53,4.6,4.6,0,0,1-3.67-.23L116.88,100.89a6.52,6.52,0,0,0-9.19,7.72l35.36,114.82a4.61,4.61,0,0,1-3.37,5.83L22.56,256.05a6.51,6.51,0,0,0-2.08,11.82L121.37,333.1a4.59,4.59,0,0,1,1.17,6.63L50,435.54a6.51,6.51,0,0,0,6,10.39l119.22-14.88a4.6,4.6,0,0,1,5.16,4.33l6,120a6.51,6.51,0,0,0,11.28,4.1l81.76-88A4.64,4.64,0,0,1,282.87,470Z"/><path class="cls-3" d="M282.13,430.27l-61.32,66a7.32,7.32,0,0,1-12.68-4.61l-4.53-90a1,1,0,0,0-1.14-1L113.05,411.9a7.32,7.32,0,0,1-6.74-11.68l54.37-71.86a1,1,0,0,0-.26-1.46L84.75,278A7.32,7.32,0,0,1,87.1,264.7l87.83-20.09a1,1,0,0,0,.75-1.29L149.16,157.2a7.32,7.32,0,0,1,10.33-8.67l80.2,41.07a1,1,0,0,0,1.4-.5l35-83a7.32,7.32,0,0,1,13.48,0l35,83a1,1,0,0,0,1.4.5l80.2-41.07a7.32,7.32,0,0,1,10.33,8.67l-26.52,86.12a1,1,0,0,0,.74,1.29l87.84,20.09A7.32,7.32,0,0,1,481,278L405.32,326.9a1,1,0,0,0-.26,1.46l54.37,71.86a7.32,7.32,0,0,1-6.74,11.68l-89.41-11.17a1,1,0,0,0-1.14,1l-4.54,90a7.31,7.31,0,0,1-12.67,4.61l-61.32-66A1,1,0,0,0,282.13,430.27Z"/><path class="cls-4" d="M350.22,501.9a10.41,10.41,0,0,1-7.67-3.4l-59.68-64.26L223.19,498.5a10.57,10.57,0,0,1-18.3-6.66l-4.41-87.59-87,10.87a10.57,10.57,0,0,1-9.73-16.86l52.92-69.94L83,280.7a10.56,10.56,0,0,1,3.38-19.17L171.87,242l-25.81-83.82A10.56,10.56,0,0,1,161,145.65l78.06,40,34.11-80.8a10.56,10.56,0,0,1,19.46,0l34.11,80.8,78.06-40a10.56,10.56,0,0,1,14.91,12.51L393.87,242l85.5,19.55a10.56,10.56,0,0,1,3.38,19.17L409.1,328.32,462,398.26a10.57,10.57,0,0,1-9.73,16.86l-87-10.87-4.41,87.59a10.42,10.42,0,0,1-6.94,9.4A10.85,10.85,0,0,1,350.22,501.9Zm-67.35-75.2a4.28,4.28,0,0,1,3.12,1.36l61.32,66a4.07,4.07,0,0,0,7.05-2.57l4.54-90a4.26,4.26,0,0,1,4.78-4l89.41,11.17a4.08,4.08,0,0,0,3.75-6.51l-54.37-71.85a4.25,4.25,0,0,1,1.08-6.14l75.67-48.93a4.07,4.07,0,0,0-1.3-7.39l-87.84-20.09a4.26,4.26,0,0,1-3.12-5.41l26.52-86.11a4.08,4.08,0,0,0-5.75-4.83l-80.2,41.07a4.27,4.27,0,0,1-5.87-2.13l-35-83a4.07,4.07,0,0,0-7.5,0l-35,83a4.27,4.27,0,0,1-5.87,2.13L158,151.42a4.08,4.08,0,0,0-5.75,4.83l26.52,86.11a4.26,4.26,0,0,1-3.12,5.41L87.82,267.86a4.07,4.07,0,0,0-1.3,7.39l75.67,48.93a4.25,4.25,0,0,1,1.08,6.14L108.9,402.17a4.08,4.08,0,0,0,3.75,6.51l89.41-11.17a4.26,4.26,0,0,1,4.78,4l4.54,90a4.07,4.07,0,0,0,7.05,2.57l61.32-66A4.28,4.28,0,0,1,282.87,426.7Z"/><path class="cls-1" d="M351,228.61V335.78q0,18.36-8.21,32.18a53.44,53.44,0,0,1-23.74,21.18q-15.52,7.38-36.71,7.37-32,0-49.62-16.37t-17.67-44.81V228.61h35V330q0,19.14,7.71,28.09t25.49,8.95q17.22,0,25-9T316,329.78V228.61Z"/><path class="cls-5" d="M282.37,399.75c-22,0-39.48-5.79-51.82-17.23s-18.72-27.38-18.72-47.19v-110h41.5V330c0,11.9,2.33,20.64,6.92,26s12.21,7.83,23,7.83c10.44,0,18-2.65,22.52-7.88s7-14.17,7-26.15V225.36h41.49V335.78c0,12.77-2.91,24.16-8.67,33.84a56.9,56.9,0,0,1-25.13,22.46C309.73,397.17,296.92,399.75,282.37,399.75Zm-64.05-167.9V335.33c0,17.93,5.6,32.2,16.64,42.43s27.06,15.5,47.41,15.5c13.58,0,25.46-2.37,35.32-7.05A50.53,50.53,0,0,0,340,366.3c5.14-8.66,7.75-18.93,7.75-30.52V231.85H319.27v97.93c0,13.58-2.88,23.8-8.55,30.38s-15,10.14-27.44,10.14c-12.79,0-22.2-3.39-27.95-10.08s-8.49-16.71-8.49-30.21V231.85Z"/><text class="cls-6" transform="translate(572.85 376.65)">UTEPSA</text><text class="cls-7" transform="translate(589.23 422.86)">UNIVERSI<tspan class="cls-8" x="156.89" y="0">D</tspan><tspan class="cls-9" x="182.02" y="0">AD TECNO</tspan><tspan class="cls-10" x="353.49" y="0">L</tspan><tspan x="371.43" y="0">OGICA PRI</tspan><tspan class="cls-11" x="543.98" y="0">V</tspan><tspan class="cls-9" x="564.24" y="0">A</tspan><tspan class="cls-8" x="586.55" y="0">D</tspan><tspan x="611.68" y="0">A DE SAN</tspan><tspan class="cls-12" x="764.97" y="0">T</tspan><tspan x="783.19" y="0">A CRUZ</tspan></text></svg>