<svg id="Lab" xmlns="http://www.w3.org/2000/svg" viewBox="0 0 1178 489.37"><defs><style>.cls-1,.cls-13,.cls-2{fill:#fff;}.cls-13,.cls-2{font-size:92.41px;font-family:Montserrat-Regular, Montserrat;}.cls-2{letter-spacing:0.04em;}.cls-3{letter-spacing:0.04em;}.cls-4{letter-spacing:0.01em;}.cls-5{letter-spacing:0.03em;}.cls-6{letter-spacing:0.04em;}.cls-7{font-size:90.31px;font-family:MADESoulmaze, MADE Soulmaze;letter-spacing:0.04em;}.cls-8{letter-spacing:0.02em;}.cls-9{letter-spacing:0.01em;}.cls-10{font-size:114.46px;font-family:MADESoulmaze-Italic, MADE Soulmaze;font-style:italic;letter-spacing:0.04em;}.cls-11{letter-spacing:0.02em;}.cls-12{letter-spacing:0.04em;}.cls-13{letter-spacing:0.03em;}.cls-14{letter-spacing:0.03em;}.cls-15{letter-spacing:0.02em;}.cls-16{letter-spacing:0.05em;}.cls-17{letter-spacing:0.04em;}</style></defs><title>Powered_by</title><path class="cls-1" d="M546.18,274.81a8.87,8.87,0,0,0-6.86-7.21l-79.65-18.22,24.05-78.1A9,9,0,0,0,471,160.63l-72.73,37.25-31.77-75.29a8.88,8.88,0,0,0-8.29-5.5l-.53,0V162.9a7.18,7.18,0,0,1,6.24,4.44l23.6,55.91,54-27.66a7.31,7.31,0,0,1,10.31,8.66l-17.86,58,59.16,13.53A7.31,7.31,0,0,1,495.49,289l-51,33,36.62,48.39A7.31,7.31,0,0,1,474.41,382l-60.21-7.51-3.06,60.61a7.31,7.31,0,0,1-12.65,4.6l-40.8-43.93v29.87l.53-.57L413.82,485a9,9,0,0,0,15.59-5.67l4.11-81.61,81.08,10.12a9,9,0,0,0,8.29-14.36l-49.31-65.16,68.63-44.36A8.88,8.88,0,0,0,546.18,274.81Z" transform="translate(-161 1.5)"/><path class="cls-1" d="M446.94,281.71a59.63,59.63,0,0,0-56.61-40.88,60.86,60.86,0,0,0-9,.67,3,3,0,0,0,.9,5.9,54.23,54.23,0,0,1,8.11-.61,53.68,53.68,0,0,1,50.95,36.79,3,3,0,0,0,3.85,1.85h0A3,3,0,0,0,446.94,281.71Z" transform="translate(-161 1.5)"/><path class="cls-1" d="M390.33,252.83a48.61,48.61,0,0,0-8,.66,3,3,0,0,0-2.48,3.19v0a3,3,0,0,0,3.46,2.65,42.24,42.24,0,0,1,7-.58,41.74,41.74,0,0,1,39.73,28.95,3,3,0,0,0,3.86,1.9h0a3,3,0,0,0,1.79-3.7A47.7,47.7,0,0,0,390.33,252.83Z" transform="translate(-161 1.5)"/><path class="cls-1" d="M390.33,264.75a36.47,36.47,0,0,0-7,.68,3,3,0,0,0-2.39,3.2h0a3,3,0,0,0,3.52,2.66,29.81,29.81,0,0,1,34.36,20.53,3,3,0,0,0,5.72-1.7A35.8,35.8,0,0,0,390.33,264.75Z" transform="translate(-161 1.5)"/><path class="cls-1" d="M404.57,342.62V285.9a5.63,5.63,0,0,0-5.64-5.63H357.69v12h33.62a5.65,5.65,0,0,1,5.64,5.64v31.35a5.64,5.64,0,0,1-5.64,5.64H357.69v13.38h41.24A5.63,5.63,0,0,0,404.57,342.62Z" transform="translate(-161 1.5)"/><path class="cls-1" d="M409.15,351.42H357.69v14.8h51.46a5.81,5.81,0,0,0,5.81-5.81v-3.17A5.82,5.82,0,0,0,409.15,351.42Z" transform="translate(-161 1.5)"/><polygon class="cls-1" points="206.79 328.28 229.69 315.06 206.79 301.84 206.79 311.36 196.69 311.36 196.69 318.76 206.79 318.76 206.79 328.28"/><path class="cls-1" d="M340.81,122.59,309,197.88,236.3,160.63a9,9,0,0,0-12.69,10.65l24,78.1L168,267.6a9,9,0,0,0-2.89,16.33l68.63,44.37-49.31,65.15a9,9,0,0,0,8.29,14.37l81.08-10.13,4.11,81.62a8.89,8.89,0,0,0,5.92,8,9.26,9.26,0,0,0,3.13.55,8.84,8.84,0,0,0,6.53-2.89L349.1,425.1V395.26l-41.29,44.47a7.31,7.31,0,0,1-12.66-4.6l-3-60.61L231.88,382a7.31,7.31,0,0,1-6.73-11.66L261.77,322l-51-33a7.31,7.31,0,0,1,2.34-13.26l59.15-13.53-17.86-58a7.31,7.31,0,0,1,10.32-8.66l54,27.66,23.6-55.91a7.2,7.2,0,0,1,6.73-4.46V117.09A8.87,8.87,0,0,0,340.81,122.59Z" transform="translate(-161 1.5)"/><path class="cls-1" d="M334.24,340.45h0c-3-3.49-4.54-9.31-4.54-17.29V249.71H298.91v77.12c0,14,4.47,25.25,13.28,33.41s21.05,12.2,36.57,12.2h.35V345.49C342.09,345.45,337.08,343.75,334.24,340.45Z" transform="translate(-161 1.5)"/><text class="cls-2" transform="translate(436.23 242.33)">L<tspan class="cls-3" x="58.31" y="0">ABOR</tspan><tspan class="cls-4" x="353.36" y="0">A</tspan><tspan class="cls-5" x="420.08" y="0">T</tspan><tspan class="cls-6" x="475.89" y="0">ORIO</tspan><tspan class="cls-7"><tspan x="0" y="81.91">de SI</tspan><tspan class="cls-8" x="284.37" y="81.91">S</tspan><tspan x="352.73" y="81.91">TEM</tspan><tspan class="cls-9" x="592.68" y="81.91">A</tspan><tspan x="671.6" y="81.91">S</tspan></tspan><tspan class="cls-10"><tspan x="0" y="191.11">y </tspan><tspan class="cls-11" x="138.26" y="191.11">R</tspan><tspan class="cls-12" x="230.75" y="191.11">EDES</tspan></tspan></text><text class="cls-13" transform="translate(0.48 78.54)">P<tspan class="cls-14" x="68.84" y="0">ow</tspan><tspan class="cls-3" x="212.63" y="0">e</tspan><tspan x="272.14" y="0">r</tspan><tspan class="cls-3" x="311.69" y="0">ed </tspan><tspan class="cls-15" x="465.45" y="0">b</tspan><tspan class="cls-16" x="530.41" y="0">y</tspan><tspan class="cls-17" x="584.93" y="0">:</tspan></text></svg>