<svg id="Capa_1" data-name="Capa 1" xmlns="http://www.w3.org/2000/svg" viewBox="0 0 1000 500"><defs><style>.cls-1,.cls-2,.cls-3{fill:#d3183c;}.cls-2{stroke:#d3183c;stroke-miterlimit:10;stroke-width:0.25px;}.cls-3{isolation:isolate;font-size:157.67px;font-family:NotoSans-Bold, Noto Sans;font-weight:700;}</style></defs><title>UTEPSA-Rojo</title><path class="cls-1" d="M355.87,227a7.51,7.51,0,0,0-5.8-6.11L282.6,205.45,303,139.31a7.6,7.6,0,0,0-10.75-9l-61.61,31.54L203.7,98.06a7.63,7.63,0,0,0-14,0l-26.91,63.76-61.6-31.54a7.62,7.62,0,0,0-10.76,9l20.37,66.14L43.28,220.88a7.62,7.62,0,0,0-2.44,13.83L99,272.29,57.2,327.48a7.62,7.62,0,0,0,7,12.16l68.68-8.58,3.47,69.13a7.52,7.52,0,0,0,5,6.79,7.85,7.85,0,0,0,2.66.47,7.5,7.5,0,0,0,5.53-2.44l47.11-50.73L243.77,405a7.62,7.62,0,0,0,13.21-4.8l3.48-69.13,68.68,8.58a7.61,7.61,0,0,0,7-12.16l-41.78-55.19,58.13-37.58A7.49,7.49,0,0,0,355.87,227ZM93.2,309.07,125.06,267a.58.58,0,0,0-.12-.83l0,0L80.58,237.44A4.28,4.28,0,0,1,82,229.66l51.47-11.78a.6.6,0,0,0,.45-.71v0l-15.54-50.47a4.28,4.28,0,0,1,6.05-5.06l47,24.06a.58.58,0,0,0,.79-.26l0,0,20.53-48.64a4.3,4.3,0,0,1,7.91,0l20.53,48.64a.59.59,0,0,0,.78.32l0,0,47-24.06a4.28,4.28,0,0,1,5.77,1.86,4.33,4.33,0,0,1,.29,3.22l-15.53,50.45a.59.59,0,0,0,.39.74h.05l51.47,11.78a4.29,4.29,0,0,1,3.22,5.14,4.24,4.24,0,0,1-1.85,2.64l-44.34,28.67a.61.61,0,0,0-.18.82l0,0,31.86,42.1a4.28,4.28,0,0,1-3.95,6.84l-52.4-6.54a.59.59,0,0,0-.66.51v.05l-2.66,52.73a4.29,4.29,0,0,1-4.49,4.09,4.35,4.35,0,0,1-2.94-1.37l-35.93-38.69a.6.6,0,0,0-.84,0l0,0L160.3,365.37a4.28,4.28,0,0,1-7.42-2.71l-2.66-52.72a.59.59,0,0,0-.62-.57h0l-52.4,6.54a4.29,4.29,0,0,1-4-6.85Z"/><path class="cls-2" d="M236.61,208.51v62.8a36.19,36.19,0,0,1-4.82,18.86,31.33,31.33,0,0,1-13.9,12.41q-9.09,4.31-21.51,4.31-18.72,0-29.06-9.59T157,271V208.51h20.51v59.42q0,11.22,4.52,16.46t14.94,5.25q10.09,0,14.64-5.28t4.55-16.57V208.51Z"/><text class="cls-3" transform="translate(367.59 306.68)">UTEPSA</text></svg>